<svg height="511pt" viewBox="-16 0 511 511.99977" width="511pt" xmlns="http://www.w3.org/2000/svg"><path d="m414.117188 391.984375h-93.992188c-8.292969 0-15.003906-6.707031-15.003906-15s6.710937-15 15.003906-15h93.992188c7.414062 0 13.800781-5.539063 14.839843-12.878906l21.433594-92.011719c.632813-4.363281-.628906-8.613281-3.515625-11.953125-2.898438-3.339844-6.914062-5.171875-11.324219-5.171875h-114.492187c-8.289063 0-15-6.710938-15-15 0-8.292969 6.710937-15.003906 15-15.003906h114.492187c13.054688 0 25.433594 5.65625 33.988281 15.515625 8.554688 9.859375 12.410157 22.925781 10.5625 35.863281l-21.433593 92.011719c-3.148438 22.019531-22.296875 38.628906-44.550781 38.628906zm0 0" fill="#c4b3af"/><path d="m390.542969 194.964844v91.007812c0 91.210938-73.808594 166.019532-165.019531 166.019532-91.207032 0-165.015626-74.808594-165.015626-166.019532v-91.007812c0-8.402344 6.597657-15.003906 15-15.003906h300.035157c8.402343 0 15 6.601562 15 15.003906zm0 0" fill="#ede9e8"/><path d="m390.542969 194.964844v91.007812c0 91.210938-73.808594 166.019532-165.019531 166.019532v-272.03125h150.019531c8.402343 0 15 6.601562 15 15.003906zm0 0" fill="#dfd7d5"/><path d="m142.941406 147.507812c-14.238281-9.492187-22.734375-25.375-22.734375-42.484374 0-17.109376 8.496094-32.992188 22.734375-42.484376 5.964844-3.96875 9.378906-10.355468 9.378906-17.523437 0-7.164063-3.414062-13.550781-9.378906-17.519531-6.882812-4.585938-8.757812-13.902344-4.160156-20.804688 4.585938-6.898437 13.859375-8.773437 20.804688-4.160156 14.238281 9.492188 22.738281 25.375 22.738281 42.484375s-8.5 32.992187-22.738281 42.484375c-5.964844 3.972656-9.378907 10.359375-9.378907 17.523438 0 7.164062 3.414063 13.550781 9.378907 17.523437 6.898437 4.597656 8.761718 13.902344 4.160156 20.800781-4.523438 6.796875-13.789063 8.8125-20.804688 4.160156zm0 0" fill="#ffcebf"/><path d="m225.523438 102.453125c-.296876.898437-.296876 1.800781-.296876 2.699219 0 .902344 0 1.800781.296876 2.703125.601562 6 3.902343 11.398437 9.003906 14.699219 6.902344 4.503906 8.699218 13.804687 4.199218 20.703124-3 4.5-8.101562 6.898438-13.203124 6.898438-2.398438 0-5.398438-.898438-7.5-2.699219-14.398438-9.300781-22.800782-25.203125-22.800782-42.304687 0-17.101563 8.402344-33.003906 22.800782-42.605469 3.601562-2.398437 6-5.398437 7.5-9 1.199218-2.699219 1.800781-5.398437 1.800781-8.402344 0-2.996093-.601563-6-1.800781-8.699219-1.5-3.601562-3.898438-6.597656-7.5-9-6.898438-4.503906-8.699219-13.804687-4.199219-20.703124 2.699219-3.898438 7.199219-6.300782 11.699219-6.601563 3.300781-.296875 6.304687.601563 9.003906 2.402344 14.402344 9.601562 22.800781 25.5 22.800781 42.601562 0 17.101563-8.398437 33.007813-22.800781 42.308594-5.402344 3.300781-8.402344 9-9.003906 15zm0 0" fill="#ffcebf"/><path d="m292.960938 147.507812c-14.242188-9.492187-22.738282-25.375-22.738282-42.484374 0-17.109376 8.496094-32.992188 22.738282-42.484376 5.960937-3.96875 9.375-10.355468 9.375-17.523437 0-7.164063-3.414063-13.550781-9.375-17.519531-6.886719-4.585938-8.761719-13.902344-4.160157-20.804688 4.585938-6.898437 13.855469-8.773437 20.800781-4.160156 14.242188 9.492188 22.738282 25.375 22.738282 42.484375s-8.496094 32.992187-22.738282 42.484375c-5.960937 3.972656-9.375 10.359375-9.375 17.523438 0 7.164062 3.414063 13.550781 9.375 17.523437 6.898438 4.597656 8.761719 13.902344 4.160157 20.800781-4.519531 6.796875-13.785157 8.8125-20.800781 4.160156zm0 0" fill="#ffbfab"/><path d="m420.546875 436.992188c0 41.402343-33.601563 75.007812-75.007813 75.007812h-240.027343c-41.40625 0-75.007813-33.605469-75.007813-75.007812zm0 0" fill="#ff4b00"/><path d="m257.328125 45.144531c0 17.101563-8.398437 33.007813-22.800781 42.308594-5.402344 3.300781-8.402344 9-9.003906 15v-48.90625c1.199218-2.699219 1.800781-5.398437 1.800781-8.402344 0-2.996093-.601563-6-1.800781-8.699219v-36.304687c3.300781-.296875 6.304687.601563 9.003906 2.402344 14.402344 9.601562 22.800781 25.5 22.800781 42.601562zm0 0" fill="#ffbfab"/><path d="m238.726562 143.257812c-3 4.5-8.101562 6.898438-13.203124 6.898438v-42.300781c.601562 6 3.902343 11.398437 9.003906 14.699219 6.902344 4.503906 8.699218 13.804687 4.199218 20.703124zm0 0" fill="#ffbfab"/><path d="m420.546875 436.992188c0 41.402343-33.601563 75.007812-75.007813 75.007812h-120.015624v-75.007812zm0 0" fill="#dd3400"/><path d="m450.550781 436.992188c0 8.402343-6.601562 15-15 15h-420.050781c-8.398438 0-15-6.597657-15-15 0-8.402344 6.601562-15.003907 15-15.003907h420.050781c8.398438 0 15 6.601563 15 15.003907zm0 0" fill="#ff7816"/><path d="m450.550781 436.992188c0 8.402343-6.601562 15-15 15h-210.027343v-30.003907h210.027343c8.398438 0 15 6.601563 15 15.003907zm0 0" fill="#ff4b00"/><path d="m180.519531 361.984375v30c0 16.503906-13.5 30.003906-30.003906 30.003906h-30.003906c-16.5 0-30-13.5-30-30.003906v-30c0-16.503906 13.5-30.003906 30-30.003906h30.003906c16.503906 0 30.003906 13.5 30.003906 30.003906zm0 0" fill="#663325"/><path d="m120.511719 361.984375v30c0 16.503906-13.5 30.003906-30 30.003906h-30.003907c-16.503906 0-30.003906-13.5-30.003906-30.003906v-30c0-16.503906 13.5-30.003906 30.003906-30.003906h30.003907c16.5 0 30 13.5 30 30.003906zm0 0" fill="#804231"/></svg>