<?xml version="1.0" encoding="iso-8859-1"?>
<!-- Generator: Adobe Illustrator 19.0.0, SVG Export Plug-In . SVG Version: 6.00 Build 0)  -->
<svg version="1.1" id="Capa_1" xmlns="http://www.w3.org/2000/svg" xmlns:xlink="http://www.w3.org/1999/xlink" x="0px" y="0px"
	 viewBox="0 0 512.239 512.239" style="enable-background:new 0 0 512.239 512.239;" xml:space="preserve">
<path style="fill:#90A4AE;" d="M296.184,185.189c-2.025-2.342-4.968-3.689-8.064-3.691h-64c-5.891-0.058-10.713,4.67-10.771,10.561
	c-0.005,0.535,0.03,1.069,0.105,1.599l21.333,149.333c0.749,5.302,5.313,9.226,10.667,9.173h21.333
	c5.354,0.053,9.917-3.872,10.667-9.173l21.333-149.333C299.188,190.592,298.238,187.502,296.184,185.189z"/>
<path style="fill:#455A64;" d="M309.453,330.832H202.786c-29.455,0-53.333,23.878-53.333,53.333c0,5.891,4.776,10.667,10.667,10.667
	h192c5.891,0,10.667-4.776,10.667-10.667C362.786,354.71,338.908,330.832,309.453,330.832z"/>
<path style="fill:#FFC107;" d="M96.119,138.832h320c5.891,0,10.667,4.776,10.667,10.667v42.667c0,5.891-4.776,10.667-10.667,10.667
	h-320c-5.891,0-10.667-4.776-10.667-10.667v-42.667C85.453,143.608,90.228,138.832,96.119,138.832z"/>
<g>
	<path style="fill:#607D8B;" d="M10.786,394.832c-0.717,0.004-1.432-0.067-2.133-0.213c-5.772-1.177-9.498-6.81-8.321-12.582
		c0-0.001,0.001-0.003,0.001-0.004l20.971-104.875L0.119,129.659c-0.874-5.826,3.14-11.257,8.966-12.131
		c0.069-0.01,0.138-0.02,0.207-0.029c5.878-0.775,11.291,3.309,12.16,9.173l21.333,149.333c0.198,1.186,0.198,2.398,0,3.584
		L21.453,386.256C20.442,391.32,15.949,394.932,10.786,394.832z"/>
	<path style="fill:#607D8B;" d="M117.453,394.832c-5.891,0-10.667-4.776-10.667-10.667v-96H32.119
		c-5.891,0-10.667-4.776-10.667-10.667c0-5.891,4.776-10.667,10.667-10.667h85.333c5.891,0,10.667,4.776,10.667,10.667v106.667
		C128.119,390.056,123.344,394.832,117.453,394.832z"/>
	<path style="fill:#607D8B;" d="M394.786,394.832c-5.891,0-10.667-4.776-10.667-10.667V277.499c0-5.891,4.776-10.667,10.667-10.667
		h85.333c5.891,0,10.667,4.776,10.667,10.667c0,5.891-4.776,10.667-10.667,10.667h-74.667v96
		C405.453,390.056,400.677,394.832,394.786,394.832z"/>
	<path style="fill:#607D8B;" d="M501.453,394.832c-5.062-0.009-9.42-3.574-10.432-8.533l-21.333-106.667
		c-0.198-1.186-0.198-2.398,0-3.584l21.333-149.333c0.807-5.804,6.105-9.898,11.925-9.216c5.842,0.76,9.962,6.111,9.202,11.953
		c-0.009,0.069-0.019,0.138-0.029,0.207L491.042,277.2l20.864,104.832c1.15,5.778-2.602,11.394-8.38,12.543
		c-0.001,0-0.003,0.001-0.004,0.001C502.843,394.732,502.15,394.818,501.453,394.832z"/>
</g>
<g>
</g>
<g>
</g>
<g>
</g>
<g>
</g>
<g>
</g>
<g>
</g>
<g>
</g>
<g>
</g>
<g>
</g>
<g>
</g>
<g>
</g>
<g>
</g>
<g>
</g>
<g>
</g>
<g>
</g>
</svg>
