<svg height="512" viewBox="0 0 512 512" width="512" xmlns="http://www.w3.org/2000/svg"><g id="Flat"><path d="m264 200h136a16 16 0 0 1 16 16 16 16 0 0 1 -16 16h-136z" fill="#a1764a"/><rect fill="#bc8d5d" height="32" rx="16" width="176" x="104" y="200"/><g fill="#8c6231"><path d="m256 232h32v192h-32z"/><path d="m120 232h32v192h-32z"/><path d="m368 232h32v192h-32z"/></g><path d="m128 168 24 32h48l24-32z" fill="#e6e6e6"/><path d="m296 168 24 32h48l24-32z" fill="#e6e6e6"/><path d="m168 128h16v72h-16z" fill="#65dcff"/><path d="m152 88h48a0 0 0 0 1 0 0v24a24 24 0 0 1 -24 24 24 24 0 0 1 -24-24v-24a0 0 0 0 1 0 0z" fill="#57c1ff"/><path d="m336 128h16v40h-16z" fill="#65dcff"/><path d="m320 88h48a0 0 0 0 1 0 0v24a24 24 0 0 1 -24 24 24 24 0 0 1 -24-24v-24a0 0 0 0 1 0 0z" fill="#57c1ff"/><path d="m469.17863 144a15.70787 15.70787 0 0 0 -15.46885 12.97807l-21.70978 123.02193h-80a24 24 0 0 0 -24 24v16h128l28.63313-157.48222a15.70786 15.70786 0 0 0 -15.4545-18.51778z" fill="#fff1d8"/><path d="m456 320 8 104h-16l-24-104z" fill="#bc8d5d"/><path d="m328 320-8 104h16l24-104z" fill="#bc8d5d"/><path d="m42.82137 144a15.70787 15.70787 0 0 1 15.46885 12.97807l21.70978 123.02193h80a24 24 0 0 1 24 24v16h-128l-28.63313-157.48222a15.70786 15.70786 0 0 1 15.4545-18.51778z" fill="#fff1d8"/><path d="m56 320-8 104h16l24-104z" fill="#bc8d5d"/><path d="m184 320 8 104h-16l-24-104z" fill="#bc8d5d"/></g></svg>