<?xml version="1.0" encoding="iso-8859-1"?>
<!-- Generator: Adobe Illustrator 19.0.0, SVG Export Plug-In . SVG Version: 6.00 Build 0)  -->
<svg version="1.1" id="Capa_1" xmlns="http://www.w3.org/2000/svg" xmlns:xlink="http://www.w3.org/1999/xlink" x="0px" y="0px"
	 viewBox="0 0 512 512" style="enable-background:new 0 0 512 512;" xml:space="preserve">
<circle style="fill:#FF4C5B;" cx="256" cy="256" r="256"/>
<path style="fill:#FC1939;" d="M512,256c0-9.629-0.55-19.128-1.585-28.48l-99.356-99.357l-3.98,6.501l-17.46-17.46l-67.297,105.823
	L216.498,117.203l-110.361,12.483l-6.25,22.831l59.15,59.15L70.602,241.7l203.172,203.171l-85.534,5.243l61.81,61.81
	c1.978,0.046,3.96,0.076,5.95,0.076C397.385,512,512,397.385,512,256z"/>
<path style="fill:#FFFFFF;" d="M122.383,117.203v8.659c-2.744-1.702-5.988-2.673-9.463-2.637
	c-9.481,0.098-17.319,7.913-17.443,17.394c-0.129,9.845,7.814,17.867,17.63,17.867c3.404,0,6.581-0.967,9.276-2.638v9.887
	c0,6.655,1.382,12.986,3.875,18.724c2.867,6.6,9.431,10.825,16.627,10.825h53.111c7.196,0,13.76-4.225,16.627-10.825
	c2.493-5.738,3.875-12.069,3.875-18.724v-48.532H122.383z M118.035,145.783c-2.722,2.722-7.135,2.722-9.857,0s-2.722-7.135,0-9.857
	s7.135-2.722,9.857,0C120.757,138.648,120.757,143.061,118.035,145.783z"/>
<path style="fill:#AB6A50;" d="M211.091,165.65v-16.391c-4.615,1.895-9.18,3.734-14.007,5.05c-10.689,2.58-21.01,2.211-32.068,0.369
	c-4.423-0.737-8.478-2.212-13.269-2.949c-7.615-1.088-16.835-5.385-23.959-3.27v17.192c0,5.925,1.24,11.56,3.472,16.662
	c1.875,4.286,6.174,7.001,10.852,7.001h54.654c4.678,0,8.977-2.715,10.852-7.001C209.851,177.21,211.091,171.576,211.091,165.65z"/>
<path style="fill:#E0E0E0;" d="M295.503,117.203v48.532c0,6.655,1.382,12.986,3.875,18.724c2.867,6.6,9.431,10.825,16.627,10.825
	h53.111c7.196,0,13.76-4.225,16.627-10.825c2.493-5.738,3.875-12.069,3.875-18.724v-9.887c2.695,1.671,5.872,2.638,9.276,2.638
	c9.816,0,17.758-8.021,17.63-17.867c-0.124-9.481-7.962-17.296-17.443-17.394c-3.475-0.036-6.719,0.936-9.463,2.637v-8.659H295.503z
	 M393.966,135.927c2.722-2.722,7.135-2.722,9.857,0s2.722,7.135,0,9.857s-7.135,2.722-9.857,0
	C391.244,143.062,391.244,138.649,393.966,135.927z"/>
<path style="fill:#854830;" d="M300.909,165.65v-16.391c4.615,1.895,9.18,3.734,14.007,5.05c10.689,2.58,21.01,2.212,32.068,0.369
	c4.423-0.737,8.478-2.212,13.269-2.949c7.615-1.088,16.835-5.385,23.959-3.27v17.192c0,5.925-1.24,11.56-3.472,16.662
	c-1.875,4.286-6.174,7.001-10.852,7.001h-54.654c-4.678,0-8.977-2.715-10.852-7.001C302.149,177.21,300.909,171.576,300.909,165.65z
	"/>
<rect x="238.89" y="222.96" style="fill:#764C24;" width="34.23" height="213.31"/>
<rect x="255.95" y="222.96" style="fill:#603C1B;" width="17.16" height="213.31"/>
<rect x="70.6" y="187.1" style="fill:#5F3817;" width="370.8" height="54.601"/>
<rect x="255.95" y="187.1" style="fill:#412108;" width="185.45" height="54.601"/>
<rect x="188.24" y="415.08" style="fill:#5F3817;" width="135.52" height="35.03"/>
<rect x="255.95" y="415.08" style="fill:#412108;" width="67.808" height="35.03"/>
<g>
</g>
<g>
</g>
<g>
</g>
<g>
</g>
<g>
</g>
<g>
</g>
<g>
</g>
<g>
</g>
<g>
</g>
<g>
</g>
<g>
</g>
<g>
</g>
<g>
</g>
<g>
</g>
<g>
</g>
</svg>
